Description

Poster: http://cdn.piczend.com/image/vrg72qkhoqwljv5ws11b1ps6j.jpeg
Release date: 2013
Genre: Drama
Plot: An ambitious married woman's temptation by a handsome billionaire leads to betrayal, recklessness, and forever alters the course of her life.
--------------------------------
Runtime: 1 h 51 min
Rating: 3.4/10
Votes: 3,287
Writer(s)/Director(s): Tyler Perry/Tyler Perry
Actors: Jurnee Smollett-Bell, Vanessa Williams, Brandy Norwood, Kim Kardashian
Trailer: No trailer found.

Screenshots: 
http://cdn.piczend.com/image/a9vknrismwswxvpmoouruzjbp.jpeg 
http://cdn.piczend.com/image/a90vu2wtn67ueph1h4otk1hyl.jpeg 
http://cdn.piczend.com/image/ojbxlqykgkvygfcdcx7r4zzze.jpeg 
http://cdn.piczend.com/image/iz5qoh4yiszzhawrwvybxrelp.jpeg

Mediainfo:
General
Complete name :	Temptation: Confessions of a Marriage Counselor (2013) CAM 320p [Zend]/Temptation: Confessions of a Marriage Counselor (2013) CAM 320p [Zend].mp4
Format :	MPEG-4
Format profile :	Base Media
Codec ID :	isom
File size :	1.17 GiB
Duration :	1h 46mn
Overall bit rate :	1 577 Kbps
Writing application :	Lavf53.21.1

Video
ID :	1
Format :	AVC
Format/Info :	Advanced Video Codec
Format profile :	Main@L3.0
Format settings, CABAC :	Yes
Format settings, ReFrames :	3 frames
Codec ID :	avc1
Codec ID/Info :	Advanced Video Coding
Duration :	1h 46mn
Bit rate :	1 500 Kbps
Width :	640 pixels
Height :	320 pixels
Display aspect ratio :	1.950
Frame rate mode :	Constant
Frame rate :	29.970 fps
Color space :	YUV
Chroma subsampling :	4:2:0
Bit depth :	8 bits
Scan type :	Progressive
Bits/(Pixel*Frame) :	0.244
Stream size :	1.12 GiB (96%)
Writing library :	x264 core 123 r2189 35cf912
Encoding settings :	cabac=1 / ref=3 / deblock=1:0:0 / analyse=0x1:0x111 / me=hex / subme=7 / psy=1 / psy_rd=1.00:0.00 / mixed_ref=0 / me_range=16 / chroma_me=1 / trellis=1 / 8x8dct=0 / cqm=0 / deadzone=21,11 / fast_pskip=1 / chroma_qp_offset=-2 / threads=6 / sliced_threads=0 / nr=0 / decimate=1 / interlaced=0 / bluray_compat=0 / constrained_intra=0 / bframes=3 / b_pyramid=0 / b_adapt=1 / b_bias=0 / direct=1 / weightb=0 / open_gop=1 / weightp=2 / keyint=250 / keyint_min=25 / scenecut=40 / intra_refresh=0 / rc_lookahead=40 / rc=abr / mbtree=1 / bitrate=1500 / ratetol=1.0 / qcomp=0.60 / qpmin=0 / qpmax=69 / qpstep=4 / ip_ratio=1.25 / aq=1:1.00

Audio
ID :	2
Format :	AC-3
Format/Info :	Audio Coding 3
Mode extension :	CM (complete main)
Format settings, Endianness :	Big
Codec ID :	ac-3
Duration :	1h 46mn
Bit rate mode :	Constant
Bit rate :	64.0 Kbps
Channel(s) :	2 channels
Channel positions :	Front: L R
Sampling rate :	48.0 KHz
Bit depth :	16 bits
Compression mode :	Lossy
Delay relative to video :	33ms
Stream size :	48.7 MiB (4%)
